<?xml version="1.0" standalone="no"?><!DOCTYPE svg PUBLIC "-//W3C//DTD SVG 1.1//EN" "http://www.w3.org/Graphics/SVG/1.1/DTD/svg11.dtd"><svg t="1576303688421" class="icon" viewBox="0 0 1024 1024" version="1.1" xmlns="http://www.w3.org/2000/svg" p-id="659" xmlns:xlink="http://www.w3.org/1999/xlink" width="200" height="200"><defs><style type="text/css"></style></defs><path d="M873.965 549.5l0.035 0.035L511.535 912l-0.035-0.035-0.035 0.035L149 549.535l0.035-0.035c-100.058-100.095-100.047-262.35 0.034-362.43C249.15 86.987 411.405 86.976 511.5 187.034c100.095-100.058 262.35-100.047 362.43 0.034 100.082 100.08 100.093 262.336 0.035 362.431z m-45.263-45.246c75.074-75.102 75.063-196.841-0.026-271.93s-196.828-75.1-271.93-0.026l-45.246 45.23-45.246-45.23c-75.102-75.074-196.841-75.063-271.93 0.026s-75.1 196.828-0.026 271.93L511.465 821.49l0.035-0.034 0.035 0.034 317.167-317.236z" fill="#000000" p-id="660"></path></svg>